<svg id="visual" viewBox="0 0 900 600" width="900" height="600" xmlns="http://www.w3.org/2000/svg" xmlns:xlink="http://www.w3.org/1999/xlink" version="1.1"><rect x="0" y="0" width="900" height="600" fill="#001220"></rect><g fill="none" stroke="#A7233A" stroke-width="2"><circle r="73" cx="112" cy="568"></circle><circle r="17" cx="814" cy="586"></circle><circle r="58" cx="223" cy="126"></circle><circle r="55" cx="430" cy="548"></circle><circle r="23" cx="824" cy="227"></circle><circle r="27" cx="413" cy="349"></circle><circle r="31" cx="479" cy="189"></circle><circle r="55" cx="617" cy="566"></circle><circle r="53" cx="696" cy="436"></circle><circle r="18" cx="483" cy="38"></circle><circle r="61" cx="42" cy="368"></circle><circle r="23" cx="232" cy="423"></circle><circle r="30" cx="642" cy="280"></circle><circle r="17" cx="690" cy="131"></circle><circle r="55" cx="842" cy="23"></circle><circle r="16" cx="93" cy="8"></circle><circle r="70" cx="898" cy="445"></circle><circle r="23" cx="60" cy="194"></circle></g></svg>